<?xml version="1.0" encoding="UTF-8" standalone="no"?>
<svg
   xmlns:dc="http://purl.org/dc/elements/1.1/"
   xmlns:cc="http://creativecommons.org/ns#"
   xmlns:rdf="http://www.w3.org/1999/02/22-rdf-syntax-ns#"
   xmlns:svg="http://www.w3.org/2000/svg"
   xmlns="http://www.w3.org/2000/svg"
   xmlns:sodipodi="http://sodipodi.sourceforge.net/DTD/sodipodi-0.dtd"
   xmlns:inkscape="http://www.inkscape.org/namespaces/inkscape"
   width="269.28366mm"
   height="115.1311mm"
   viewBox="0 0 269.28366 115.1311"
   version="1.1"
   id="svg8"
   inkscape:version="1.0.1 (3bc2e813f5, 2020-09-07)"
   sodipodi:docname="logowhite.svg">
  <defs
     id="defs2" />
  <sodipodi:namedview
     id="base"
     pagecolor="#ffffff"
     bordercolor="#666666"
     borderopacity="1.0"
     inkscape:pageopacity="0.0"
     inkscape:pageshadow="2"
     inkscape:zoom="0.49497475"
     inkscape:cx="874.18055"
     inkscape:cy="162.69523"
     inkscape:document-units="mm"
     inkscape:current-layer="text18-47"
     inkscape:document-rotation="0"
     showgrid="false"
     showguides="true"
     inkscape:guide-bbox="true"
     inkscape:window-width="1920"
     inkscape:window-height="1027"
     inkscape:window-x="-8"
     inkscape:window-y="-8"
     inkscape:window-maximized="1" />
  <metadata
     id="metadata5">
    <rdf:RDF>
      <cc:Work
         rdf:about="">
        <dc:format>image/svg+xml</dc:format>
        <dc:type
           rdf:resource="http://purl.org/dc/dcmitype/StillImage" />
        <dc:title />
      </cc:Work>
    </rdf:RDF>
  </metadata>
  <g
     inkscape:label="Layer 1"
     inkscape:groupmode="layer"
     id="layer1"
     transform="translate(-14.799009,-43.229855)">
    <text
       xml:space="preserve"
       style="font-size:19.7556px;line-height:1.25;font-family:Couture;-inkscape-font-specification:Couture;stroke-width:0.264583"
       x="52.117558"
       y="84.991707"
       id="text12"><tspan
         sodipodi:role="line"
         id="tspan10"
         x="52.117558"
         y="84.991707"
         style="stroke-width:0.264583" /></text>
    <g
       aria-label="STUDENT"
       id="text26-6"
       style="font-size:19.7556px;line-height:1.25;font-family:Couture;-inkscape-font-specification:Couture;stroke-width:0.264583">
      <g
         aria-label="S"
         id="text1063"
         style="font-size:70.5259px;line-height:1.25;font-family:Couture;-inkscape-font-specification:Couture;stroke-width:0.24991">
        <g
           aria-label="ISEL"
           id="text18-47-9"
           style="font-size:47.6761px;line-height:1.25;font-family:Couture;-inkscape-font-specification:Couture;fill:#000000;stroke-width:0.638516">
          <path
             d="m 41.649976,79.479507 h 7.485148 V 45.438771 h -7.485148 z"
             style="fill:#000000;stroke-width:0.638516"
             id="path1488" />
          <path
             d="m 53.568914,68.180271 c 0,8.390994 6.865358,12.10973 14.493535,12.10973 9.29684,0 14.159802,-4.672258 14.159802,-10.917827 0,-7.723529 -7.5805,-9.29684 -10.107334,-9.916629 -8.534022,-2.050073 -10.155009,-2.622186 -10.155009,-5.149019 0,-2.860566 2.765214,-3.861764 5.149019,-3.861764 2.336129,0 5.816484,0.143028 6.72233,4.100144 l 7.246767,1.048875 c 0,-7.866557 -6.531625,-10.965504 -13.635365,-10.965504 -6.150217,0 -12.729519,3.289651 -12.729519,10.298038 0,12.729519 20.262343,8.057261 20.262343,15.304029 0,3.480355 -4.004792,4.243173 -6.626978,4.243173 -2.765214,0 -6.770006,-0.61979 -7.532824,-5.101343 z"
             style="fill:#000000;stroke-width:0.638516"
             id="path1490" />
          <path
             d="M 108.58705,65.891818 V 59.26484 H 93.044643 V 51.588988 H 110.63712 V 45.295743 H 85.797875 V 79.431831 H 112.25811 V 73.138586 H 93.044643 v -7.246768 z"
             style="fill:#000000;stroke-width:0.638516"
             id="path1492" />
          <path
             d="M 141.62653,79.241127 V 72.947882 H 124.17708 V 45.295743 h -7.34212 v 33.945384 z"
             style="fill:#000000;stroke-width:0.638516"
             id="path1494" />
        </g>
        <g
           aria-label="FORMULA"
           id="text22-4-4"
           style="font-size:47.6761px;line-height:1.25;font-family:Couture;-inkscape-font-specification:Couture;fill:#000000;stroke-width:0.638516">
          <path
             d="M 48.896758,105.23683 H 64.439167 V 98.609849 H 48.896758 V 90.933997 H 66.48924 V 84.640751 H 41.649991 v 34.183769 h 7.246767 v -6.34093 z"
             style="fill:#000000;stroke-width:0.638516"
             id="path1497" />
          <path
             d="m 103.58117,101.66112 c 0,-9.773601 -7.961904,-17.640158 -17.640153,-17.640158 -9.725924,0 -17.592481,7.866557 -17.592481,17.640158 0,9.72592 7.866557,17.59248 17.592481,17.59248 9.678249,0 17.640153,-7.86656 17.640153,-17.59248 z M 85.941017,91.220053 c 5.673456,0 10.298038,4.767611 10.298038,10.441067 0,5.67346 -4.624582,10.39339 -10.298038,10.39339 -5.673456,0 -10.39339,-4.71993 -10.39339,-10.39339 0,-5.673456 4.719934,-10.441067 10.39339,-10.441067 z"
             style="fill:#000000;stroke-width:0.638516"
             id="path1499" />
          <path
             d="m 126.99014,106.23803 c 5.67345,-1.23958 8.10494,-5.91184 8.10494,-10.536423 0,-5.530428 -3.28966,-10.917827 -11.87135,-10.917827 h -15.35171 v 34.08841 h 7.53283 v -12.25276 h 3.67106 l 8.58169,12.25276 h 9.15382 l -9.53522,-12.63416 z m -5.76881,-15.637766 c 3.57571,0 6.53163,0.667466 6.53163,5.101343 0,4.338523 -2.95592,5.149023 -6.53163,5.149023 h -5.81648 V 90.600264 Z"
             style="fill:#000000;stroke-width:0.638516"
             id="path1501" />
          <path
             d="m 143.10457,118.82452 h 7.10374 V 94.986465 h 0.0953 l 7.53283,15.256355 h 5.76881 l 7.5805,-15.494735 h 0.0953 v 24.076435 h 7.00839 V 84.78378 h -9.86896 L 160.69706,99.801752 152.8305,84.78378 h -9.72593 z"
             style="fill:#000000;stroke-width:0.638516"
             id="path1503" />
          <path
             d="m 214.428,84.78378 h -7.48515 v 21.16819 c 0,5.10134 -1.71634,7.38979 -7.05606,7.38979 -6.05487,0 -7.00839,-3.67106 -7.00839,-7.38979 V 84.78378 h -7.48515 v 21.16819 c 0,9.29684 5.29205,13.68304 14.49354,13.68304 9.10613,0 14.54121,-4.48155 14.54121,-13.68304 z"
             style="fill:#000000;stroke-width:0.638516"
             id="path1505" />
          <path
             d="m 244.94067,118.58614 v -6.29325 H 227.49122 V 84.640751 h -7.34212 v 33.945389 z"
             style="fill:#000000;stroke-width:0.638516"
             id="path1507" />
          <path
             d="m 252.7118,118.82452 3.57571,-7.53283 h 17.21107 l 3.33733,7.53283 h 7.24676 L 268.874,84.831456 h -7.53283 l -15.44705,33.993064 z m 12.53881,-27.604467 5.53043,13.158607 H 259.4818 l 5.72114,-13.158607 z"
             style="fill:#000000;stroke-width:0.638516"
             id="path1509" />
        </g>
        <g
           aria-label="ISEL"
           id="text18-47"
           style="font-size:47.6761px;line-height:1.25;font-family:Couture;-inkscape-font-specification:Couture;fill:#f2f2f2;stroke-width:0.638516">
          <path
             d="m 39.805505,78.081085 h 7.485148 V 44.040349 h -7.485148 z"
             style="fill:#f2f2f2;stroke-width:0.638516"
             id="path1512" />
          <path
             d="m 51.724443,66.781849 c 0,8.390994 6.865358,12.10973 14.493535,12.10973 9.29684,0 14.159802,-4.672258 14.159802,-10.917827 0,-7.723529 -7.5805,-9.29684 -10.107334,-9.91663 -8.534022,-2.050072 -10.155009,-2.622185 -10.155009,-5.149018 0,-2.860567 2.765214,-3.861765 5.149019,-3.861765 2.336129,0 5.816484,0.143029 6.72233,4.100145 l 7.246768,1.048874 c 0,-7.866557 -6.531626,-10.965503 -13.635366,-10.965503 -6.150217,0 -12.729519,3.289651 -12.729519,10.298038 0,12.729519 20.262344,8.057261 20.262344,15.304028 0,3.480356 -4.004793,4.243174 -6.626979,4.243174 -2.765214,0 -6.770006,-0.61979 -7.532824,-5.101343 z"
             style="fill:#f2f2f2;stroke-width:0.638516"
             id="path1514" />
          <path
             d="M 106.74258,64.493396 V 57.866418 H 91.200172 V 50.190566 H 108.79265 V 43.89732 H 83.953404 V 78.033409 H 110.41364 V 71.740164 H 91.200172 v -7.246768 z"
             style="fill:#f2f2f2;stroke-width:0.638516"
             id="path1516" />
          <path
             d="M 139.78206,77.842705 V 71.549459 H 122.33261 V 43.89732 h -7.34212 v 33.945385 z"
             style="fill:#f2f2f2;stroke-width:0.638516"
             id="path1518" />
        </g>
        <g
           aria-label="STUDENT"
           id="text26-8-7"
           style="font-size:47.6761px;line-height:1.25;font-family:Couture;-inkscape-font-specification:Couture;fill:#000000;stroke-width:0.638516">
          <path
             d="m 41.649998,146.25122 c 0,8.391 6.865359,12.10973 14.493535,12.10973 9.29684,0 14.159802,-4.67225 14.159802,-10.91782 0,-7.72353 -7.5805,-9.29684 -10.107333,-9.91663 -8.534023,-2.05007 -10.15501,-2.62219 -10.15501,-5.14902 0,-2.86057 2.765214,-3.86177 5.149019,-3.86177 2.336129,0 5.816484,0.14303 6.72233,4.10015 l 7.246768,1.04887 c 0,-7.86655 -6.531626,-10.9655 -13.635365,-10.9655 -6.150217,0 -12.729519,3.28965 -12.729519,10.29804 0,12.72952 20.262343,8.05726 20.262343,15.30403 0,3.48035 -4.004793,4.24317 -6.626978,4.24317 -2.765214,0 -6.770007,-0.61979 -7.532824,-5.10134 z"
             style="fill:#000000;stroke-width:0.638516"
             id="path1521" />
          <path
             d="m 83.366505,157.55046 h 7.485148 V 129.85065 H 101.57878 V 123.5574 H 72.54403 v 6.24557 h 10.822475 z"
             style="fill:#000000;stroke-width:0.638516"
             id="path1523" />
          <path
             d="m 134.76134,123.50972 h -7.48515 v 21.16819 c 0,5.10135 -1.71634,7.3898 -7.05606,7.3898 -6.05487,0 -7.00839,-3.67106 -7.00839,-7.3898 v -21.16819 h -7.48515 v 21.16819 c 0,9.29684 5.29205,13.68304 14.49354,13.68304 9.10613,0 14.54121,-4.48155 14.54121,-13.68304 z"
             style="fill:#000000;stroke-width:0.638516"
             id="path1525" />
          <path
             d="m 141.19757,157.55046 h 14.68424 c 10.39339,0 15.44705,-7.34212 15.44705,-17.21107 0,-11.25156 -6.62697,-16.82967 -15.44705,-16.82967 h -14.68424 z m 7.48515,-27.74749 h 5.33972 c 7.3898,0 9.82128,4.3862 9.82128,11.25156 0,7.53282 -4.14782,10.20269 -8.48635,10.20269 h -6.67465 z"
             style="fill:#000000;stroke-width:0.638516"
             id="path1527" />
          <path
             d="m 198.45653,143.96277 v -6.62698 h -15.54241 v -7.67585 h 17.59248 v -6.29324 h -24.83924 v 34.13608 h 26.46023 v -6.29324 h -19.21347 v -7.24677 z"
             style="fill:#000000;stroke-width:0.638516"
             id="path1529" />
          <path
             d="m 230.54249,157.59814 h 6.34092 v -34.18377 h -6.34092 v 21.26354 l -15.20867,-21.26354 h -8.5817 v 34.18377 h 6.53162 v -23.552 z"
             style="fill:#000000;stroke-width:0.638516"
             id="path1531" />
          <path
             d="m 251.37691,157.55046 h 7.48515 v -27.69981 h 10.72713 v -6.29325 h -29.03475 v 6.24557 h 10.82247 z"
             style="fill:#000000;stroke-width:0.638516"
             id="path1533" />
        </g>
        <g
           aria-label="FORMULA"
           id="text22-4"
           style="font-size:47.6761px;line-height:1.25;font-family:Couture;-inkscape-font-specification:Couture;fill:#f2f2f2;stroke-width:0.638516">
          <path
             d="M 47.052295,103.8384 H 62.594704 V 97.211419 H 47.052295 V 89.535567 H 64.644776 V 83.242322 H 39.805528 v 34.183768 h 7.246767 v -6.34093 z"
             style="fill:#f2f2f2;stroke-width:0.638516"
             id="path1536" />
          <path
             d="m 101.73671,100.26269 c 0,-9.773601 -7.961907,-17.640158 -17.640156,-17.640158 -9.725925,0 -17.592482,7.866557 -17.592482,17.640158 0,9.72592 7.866557,17.59248 17.592482,17.59248 9.678249,0 17.640156,-7.86656 17.640156,-17.59248 z M 84.096554,89.821624 c 5.673456,0 10.298038,4.76761 10.298038,10.441066 0,5.67346 -4.624582,10.39339 -10.298038,10.39339 -5.673456,0 -10.39339,-4.71993 -10.39339,-10.39339 0,-5.673456 4.719934,-10.441066 10.39339,-10.441066 z"
             style="fill:#f2f2f2;stroke-width:0.638516"
             id="path1538" />
          <path
             d="m 125.14568,104.8396 c 5.67345,-1.23958 8.10493,-5.911841 8.10493,-10.536423 0,-5.530428 -3.28965,-10.917827 -11.87135,-10.917827 h -15.3517 v 34.08841 h 7.53282 V 105.221 h 3.67106 l 8.5817,12.25276 h 9.15381 l -9.53522,-12.63416 z m -5.76881,-15.637766 c 3.5757,0 6.53162,0.667466 6.53162,5.101343 0,4.338525 -2.95592,5.149019 -6.53162,5.149019 h -5.81649 V 89.201834 Z"
             style="fill:#f2f2f2;stroke-width:0.638516"
             id="path1540" />
          <path
             d="m 141.26011,117.42609 h 7.10374 V 93.588036 h 0.0953 l 7.53283,15.256354 h 5.7688 l 7.5805,-15.494735 h 0.0954 v 24.076435 h 7.00838 V 83.38535 h -9.86895 l -7.72353,15.017972 -7.86655,-15.017972 h -9.72593 z"
             style="fill:#f2f2f2;stroke-width:0.638516"
             id="path1542" />
          <path
             d="m 212.58354,83.38535 h -7.48515 v 21.16819 c 0,5.10134 -1.71634,7.38979 -7.05606,7.38979 -6.05487,0 -7.00839,-3.67106 -7.00839,-7.38979 V 83.38535 h -7.48515 v 21.16819 c 0,9.29684 5.29205,13.68304 14.49354,13.68304 9.10613,0 14.54121,-4.48155 14.54121,-13.68304 z"
             style="fill:#f2f2f2;stroke-width:0.638516"
             id="path1544" />
          <path
             d="m 243.09621,117.18771 v -6.29325 H 225.64675 V 83.242322 h -7.34212 v 33.945388 z"
             style="fill:#f2f2f2;stroke-width:0.638516"
             id="path1546" />
          <path
             d="m 250.86733,117.42609 3.57571,-7.53283 h 17.21107 l 3.33733,7.53283 h 7.24677 L 267.02953,83.433026 h -7.53282 l -15.44706,33.993064 z m 12.53882,-27.604466 5.53043,13.158606 h -11.29924 l 5.72113,-13.158606 z"
             style="fill:#f2f2f2;stroke-width:0.638516"
             id="path1548" />
        </g>
        <g
           aria-label="STUDENT"
           id="text26-8"
           style="font-size:47.6761px;line-height:1.25;font-family:Couture;-inkscape-font-specification:Couture;fill:#f2f2f2;stroke-width:0.638516">
          <path
             d="m 39.805527,144.85279 c 0,8.39099 6.865359,12.10973 14.493535,12.10973 9.29684,0 14.159802,-4.67226 14.159802,-10.91783 0,-7.72353 -7.5805,-9.29684 -10.107333,-9.91663 -8.534023,-2.05007 -10.15501,-2.62218 -10.15501,-5.14902 0,-2.86056 2.765214,-3.86176 5.149019,-3.86176 2.336129,0 5.816484,0.14303 6.72233,4.10014 l 7.246768,1.04888 c 0,-7.86656 -6.531626,-10.96551 -13.635365,-10.96551 -6.150217,0 -12.729519,3.28965 -12.729519,10.29804 0,12.72952 20.262343,8.05726 20.262343,15.30403 0,3.48036 -4.004793,4.24317 -6.626978,4.24317 -2.765214,0 -6.770007,-0.61979 -7.532824,-5.10134 z"
             style="fill:#f2f2f2;stroke-width:0.638516"
             id="path1551" />
          <path
             d="m 81.522034,156.15202 h 7.485148 v -27.69981 h 10.727123 v -6.29325 H 70.699559 v 6.24557 h 10.822475 z"
             style="fill:#f2f2f2;stroke-width:0.638516"
             id="path1553" />
          <path
             d="m 132.91687,122.11129 h -7.48515 v 21.16819 c 0,5.10134 -1.71634,7.38979 -7.05607,7.38979 -6.05486,0 -7.00838,-3.67106 -7.00838,-7.38979 v -21.16819 h -7.48515 v 21.16819 c 0,9.29684 5.29205,13.68304 14.49353,13.68304 9.10614,0 14.54122,-4.48156 14.54122,-13.68304 z"
             style="fill:#f2f2f2;stroke-width:0.638516"
             id="path1555" />
          <path
             d="m 139.3531,156.15202 h 14.68424 c 10.39339,0 15.44705,-7.34212 15.44705,-17.21107 0,-11.25156 -6.62697,-16.82966 -15.44705,-16.82966 H 139.3531 Z m 7.48515,-27.74749 h 5.33972 c 7.38979,0 9.82128,4.3862 9.82128,11.25156 0,7.53283 -4.14783,10.20269 -8.48635,10.20269 h -6.67465 z"
             style="fill:#f2f2f2;stroke-width:0.638516"
             id="path1557" />
          <path
             d="m 196.61206,142.56433 v -6.62697 h -15.54241 v -7.67586 h 17.59248 v -6.29324 h -24.83925 v 34.13609 h 26.46024 v -6.29325 h -19.21347 v -7.24677 z"
             style="fill:#f2f2f2;stroke-width:0.638516"
             id="path1559" />
          <path
             d="m 228.69802,156.1997 h 6.34092 v -34.18377 h -6.34092 v 21.26355 l -15.20867,-21.26355 h -8.5817 v 34.18377 h 6.53162 v -23.55199 z"
             style="fill:#f2f2f2;stroke-width:0.638516"
             id="path1561" />
          <path
             d="m 249.53244,156.15202 h 7.48515 v -27.69981 h 10.72712 v -6.29325 h -29.03474 v 6.24557 h 10.82247 z"
             style="fill:#f2f2f2;stroke-width:0.638516"
             id="path1563" />
        </g>
        <rect
           style="fill:#ff7f2a;fill-rule:evenodd;stroke-width:0.569051"
           id="rect32-71"
           width="18.704998"
           height="112.70287"
           x="14.799009"
           y="44.281841" />
      </g>
    </g>
  </g>
</svg>
